# xmcd CD database file
#
# Track frame offsets:
#	150
#	16959
#	32061
#	48581
#	64218
#	82092
#	96537
#	111855
#	127778
#	148033
#	164561
#	179056
#	194249
#	217530
#	232121
#
# Disc length: 3387 seconds
#
# Revision: 0
# Processed by: cddbd v1.5.2PL0 Copyright (c) Steve Scherf et al.
# Submitted via: CDex 1.51
#
DISCID=e20d390f
DTITLE=Jacqui Naylor - The Color Five
DYEAR=2007
DGENRE=Jazz
TTITLE0=Blue Moon
TTITLE1=Hot Legs
TTITLE2=Easy Ride From Here
TTITLE3=Summertime
TTITLE4=Love Gets In The Way
TTITLE5=Sit And Rest A While
TTITLE6=I Still Haven't Found What I'm Looking For
TTITLE7=History Of Love
TTITLE8=You Don't Know What Love Is
TTITLE9=Love For Sale
TTITLE10=Angel Of Mine
TTITLE11=Lola
TTITLE12=Loosing My Religion
TTITLE13=Drive On
TTITLE14=Here's To Life
EXTD=YEAR: 2007
EXTT0=
EXTT1=
EXTT2=
EXTT3=
EXTT4=
EXTT5=
EXTT6=
EXTT7=
EXTT8=
EXTT9=
EXTT10=
EXTT11=
EXTT12=
EXTT13=
EXTT14=
PLAYORDER=
